<svg width="102" height="102" viewBox="0 0 102 102" fill="none" xmlns="http://www.w3.org/2000/svg">
<g clip-path="url(#clip0_4219_821)">
<mask id="path-1-inside-1_4219_821" fill="white">
<path d="M0 0H102V13H0V0Z"/>
</mask>
<path d="M0 1H102V-1H0V1Z" fill="#363636" mask="url(#path-1-inside-1_4219_821)"/>
<rect x="5" y="4" width="32" height="5" fill="#6A6A6A"/>
<mask id="path-4-inside-2_4219_821" fill="white">
<path d="M0 13H102V89H0V13Z"/>
</mask>
<path d="M0 14H102V12H0V14Z" fill="#363636" mask="url(#path-4-inside-2_4219_821)"/>
<mask id="path-6-inside-3_4219_821" fill="white">
<path d="M0 13H102V26H0V13Z"/>
</mask>
<path d="M0 14H102V12H0V14Z" fill="#363636" mask="url(#path-6-inside-3_4219_821)"/>
<rect x="5" y="17" width="32" height="5" fill="#6A6A6A"/>
<rect x="6" y="31" width="90" height="3" fill="#6A6A6A"/>
<rect x="6" y="39" width="55" height="3" fill="#6A6A6A"/>
<rect x="6" y="47" width="90" height="32" fill="#6A6A6A"/>
<path d="M96 21L92.5 18L89 21" stroke="#6A6A6A" stroke-linecap="round"/>
<mask id="path-13-inside-4_4219_821" fill="white">
<path d="M0 89H102V102H0V89Z"/>
</mask>
<path d="M0 90H102V88H0V90Z" fill="#363636" mask="url(#path-13-inside-4_4219_821)"/>
<path d="M5 93H37V98H5V93Z" fill="#6A6A6A"/>
<path d="M89 94L92.5 97L96 94" stroke="#6A6A6A" stroke-linecap="round"/>
<path d="M89 5L92.5 8L96 5" stroke="#6A6A6A" stroke-linecap="round"/>
</g>
<defs>
<clipPath id="clip0_4219_821">
<rect width="102" height="102" fill="white"/>
</clipPath>
</defs>
</svg>
