<svg width="102" height="102" viewBox="0 0 102 102" fill="none" xmlns="http://www.w3.org/2000/svg">
<g clip-path="url(#clip0_4219_700)">
<rect width="102" height="14" rx="7" fill="#363636"/>
<path d="M89 5L92.5 8L96 5" stroke="#6A6A6A" stroke-linecap="round"/>
<rect x="6" y="4" width="32" height="6" fill="#6A6A6A"/>
<path d="M0 25C0 21.134 3.13401 18 7 18H95C98.866 18 102 21.134 102 25C102 28.866 98.866 32 95 32H7C3.13401 32 0 28.866 0 25Z" fill="#363636"/>
<path d="M96 26L92.5 23L89 26" stroke="#6A6A6A" stroke-linecap="round"/>
<rect x="6" y="22" width="32" height="6" fill="#6A6A6A"/>
<rect x="6" y="38" width="90" height="3" fill="#6A6A6A"/>
<rect x="6" y="46" width="55" height="3" fill="#6A6A6A"/>
<rect x="6" y="54" width="90" height="27" fill="#6A6A6A"/>
<rect y="88" width="102" height="14" rx="7" fill="#363636"/>
<path d="M89 93L92.5 96L96 93" stroke="#6A6A6A" stroke-linecap="round"/>
<rect x="6" y="92" width="32" height="6" fill="#6A6A6A"/>
</g>
<defs>
<clipPath id="clip0_4219_700">
<rect width="102" height="102" fill="white"/>
</clipPath>
</defs>
</svg>
